<svg width="32" height="32" viewBox="0 0 32 32" xmlns="http://www.w3.org/2000/svg">
  <defs>
    <linearGradient id="faviconGrad" x1="0%" y1="0%" x2="100%" y2="100%">
      <stop offset="0%" style="stop-color:#000000;stop-opacity:1" />
      <stop offset="100%" style="stop-color:#1a1a1a;stop-opacity:1" />
    </linearGradient>
  </defs>

  <!-- Background -->
  <rect width="32" height="32" rx="6" fill="url(#faviconGrad)" stroke="#f59e0b" stroke-width="1"/>

  <!-- Gear shape -->
  <g transform="translate(16,16)">
    <!-- Main gear body -->
    <circle cx="0" cy="0" r="8" fill="#f59e0b" opacity="0.9"/>

    <!-- Gear teeth -->
    <g fill="#f59e0b">
      <rect x="-1" y="-10" width="2" height="3" rx="0.5"/>
      <rect x="-1" y="7" width="2" height="3" rx="0.5"/>
      <rect x="7" y="-1" width="3" height="2" rx="0.5"/>
      <rect x="-10" y="-1" width="3" height="2" rx="0.5"/>

      <!-- Diagonal teeth -->
      <rect x="6" y="-7" width="2" height="1.5" rx="0.5" transform="rotate(45)"/>
      <rect x="6" y="5.5" width="2" height="1.5" rx="0.5" transform="rotate(45)"/>
      <rect x="-8" y="-7" width="2" height="1.5" rx="0.5" transform="rotate(-45)"/>
      <rect x="-8" y="5.5" width="2" height="1.5" rx="0.5" transform="rotate(-45)"/>
    </g>

    <!-- Center hole -->
    <circle cx="0" cy="0" r="3" fill="#000000"/>
  </g>
</svg>
